<svg width="32" height="32" viewBox="0 0 32 32" fill="none" xmlns="http://www.w3.org/2000/svg">
<path d="M17.5 23V12C17.5017 10.4092 18.1343 8.88404 19.2592 7.75919C20.384 6.63433 21.9092 6.00165 23.5 6C23.7652 6 24.0196 6.10536 24.2071 6.29289C24.3946 6.48043 24.5 6.73478 24.5 7C24.5 7.26522 24.3946 7.51957 24.2071 7.70711C24.0196 7.89464 23.7652 8 23.5 8C22.4391 8 21.4217 8.42143 20.6716 9.17157C19.9214 9.92172 19.5 10.9391 19.5 12V13H27C27.5304 13 28.0391 13.2107 28.4142 13.5858C28.7893 13.9609 29 14.4696 29 15V23C29 23.5304 28.7893 24.0391 28.4142 24.4142C28.0391 24.7893 27.5304 25 27 25H19.5C18.9696 25 18.4609 24.7893 18.0858 24.4142C17.7107 24.0391 17.5 23.5304 17.5 23ZM5 25H12.5C13.0304 25 13.5391 24.7893 13.9142 24.4142C14.2893 24.0391 14.5 23.5304 14.5 23V15C14.5 14.4696 14.2893 13.9609 13.9142 13.5858C13.5391 13.2107 13.0304 13 12.5 13H5V12C5 10.9391 5.42143 9.92172 6.17157 9.17157C6.92172 8.42143 7.93913 8 9 8C9.26522 8 9.51957 7.89464 9.70711 7.70711C9.89464 7.51957 10 7.26522 10 7C10 6.73478 9.89464 6.48043 9.70711 6.29289C9.51957 6.10536 9.26522 6 9 6C7.40921 6.00165 5.88404 6.63433 4.75919 7.75919C3.63433 8.88404 3.00165 10.4092 3 12V23C3 23.5304 3.21071 24.0391 3.58579 24.4142C3.96086 24.7893 4.46957 25 5 25Z" fill="#9998E1"/>
</svg>
