<svg width="28" height="25" viewBox="0 0 28 25" fill="none" xmlns="http://www.w3.org/2000/svg">
<path d="M27.9862 22.765L26.2037 7.765C26.1459 7.27627 25.9099 6.82602 25.5409 6.50039C25.1719 6.17475 24.6958 5.99659 24.2037 6H20C20 4.4087 19.3678 2.88258 18.2426 1.75736C17.1174 0.632141 15.5913 0 14 0C12.4087 0 10.8825 0.632141 9.75733 1.75736C8.63211 2.88258 7.99997 4.4087 7.99997 6H3.79122C3.29909 5.99659 2.82299 6.17475 2.454 6.50039C2.08501 6.82602 1.84903 7.27627 1.79122 7.765L0.00871581 22.765C-0.0239496 23.045 0.00292923 23.3287 0.0875897 23.5975C0.17225 23.8664 0.31278 24.1143 0.499966 24.325C0.688505 24.5366 0.919541 24.7061 1.178 24.8224C1.43646 24.9387 1.71654 24.9992 1.99997 25H25.99C26.2751 25.0006 26.5571 24.9408 26.8174 24.8245C27.0777 24.7081 27.3103 24.5379 27.5 24.325C27.6863 24.1139 27.8259 23.8658 27.9097 23.5969C27.9935 23.3281 28.0196 23.0446 27.9862 22.765ZM14 2C15.0608 2 16.0782 2.42143 16.8284 3.17157C17.5785 3.92172 18 4.93913 18 6H9.99997C9.99997 4.93913 10.4214 3.92172 11.1715 3.17157C11.9217 2.42143 12.9391 2 14 2ZM1.99997 23L3.79122 8H7.99997V11C7.99997 11.2652 8.10532 11.5196 8.29286 11.7071C8.4804 11.8946 8.73475 12 8.99997 12C9.26518 12 9.51954 11.8946 9.70707 11.7071C9.89461 11.5196 9.99997 11.2652 9.99997 11V8H18V11C18 11.2652 18.1053 11.5196 18.2929 11.7071C18.4804 11.8946 18.7347 12 19 12C19.2652 12 19.5195 11.8946 19.7071 11.7071C19.8946 11.5196 20 11.2652 20 11V8H24.2187L25.99 23H1.99997Z" fill="#287279"/>
</svg>
